<mxfile host="Electron" modified="2024-06-28T13:48:39.427Z" agent="Mozilla/5.0 (Windows NT 10.0; Win64; x64) AppleWebKit/537.36 (KHTML, like Gecko) draw.io/24.6.1 Chrome/124.0.6367.207 Electron/30.0.6 Safari/537.36" etag="PaULNEiuGfFqbfKWjVob" version="24.6.1" type="device">
  <diagram id="C5RBs43oDa-KdzZeNtuy" name="Page-1">
    <mxGraphModel dx="2049" dy="1206" grid="1" gridSize="10" guides="1" tooltips="1" connect="1" arrows="1" fold="1" page="1" pageScale="1" pageWidth="827" pageHeight="1169" math="0" shadow="0">
      <root>
        <mxCell id="WIyWlLk6GJQsqaUBKTNV-0" />
        <mxCell id="WIyWlLk6GJQsqaUBKTNV-1" parent="WIyWlLk6GJQsqaUBKTNV-0" />
        <mxCell id="8TzWARxH1gXRL0cS0EjO-98" value="HR Easy Platform" style="rounded=0;whiteSpace=wrap;html=1;align=right;verticalAlign=top;" vertex="1" parent="WIyWlLk6GJQsqaUBKTNV-1">
          <mxGeometry x="1230" y="450" width="450" height="550" as="geometry" />
        </mxCell>
        <mxCell id="8TzWARxH1gXRL0cS0EjO-97" value="HR Easy WEB in browser" style="rounded=0;whiteSpace=wrap;html=1;align=right;verticalAlign=top;" vertex="1" parent="WIyWlLk6GJQsqaUBKTNV-1">
          <mxGeometry x="1230" y="130" width="450" height="120" as="geometry" />
        </mxCell>
        <mxCell id="8TzWARxH1gXRL0cS0EjO-41" value="HR Easy Platform" style="rounded=0;whiteSpace=wrap;html=1;align=right;verticalAlign=top;" vertex="1" parent="WIyWlLk6GJQsqaUBKTNV-1">
          <mxGeometry x="630" y="450" width="560" height="550" as="geometry" />
        </mxCell>
        <mxCell id="8TzWARxH1gXRL0cS0EjO-33" value="Telegram Application" style="rounded=0;whiteSpace=wrap;html=1;align=right;verticalAlign=top;" vertex="1" parent="WIyWlLk6GJQsqaUBKTNV-1">
          <mxGeometry x="630" y="130" width="560" height="120" as="geometry" />
        </mxCell>
        <mxCell id="8TzWARxH1gXRL0cS0EjO-35" value="Telegram Bot Java Application" style="rounded=0;whiteSpace=wrap;html=1;align=right;verticalAlign=top;" vertex="1" parent="WIyWlLk6GJQsqaUBKTNV-1">
          <mxGeometry x="630" y="260" width="560" height="170" as="geometry" />
        </mxCell>
        <mxCell id="8TzWARxH1gXRL0cS0EjO-6" value="HR Easy Platform" style="rounded=0;whiteSpace=wrap;html=1;align=right;verticalAlign=top;" vertex="1" parent="WIyWlLk6GJQsqaUBKTNV-1">
          <mxGeometry x="20" y="450" width="560" height="550" as="geometry" />
        </mxCell>
        <mxCell id="8TzWARxH1gXRL0cS0EjO-2" value="Telegram Bot Java Application" style="rounded=0;whiteSpace=wrap;html=1;align=right;verticalAlign=top;" vertex="1" parent="WIyWlLk6GJQsqaUBKTNV-1">
          <mxGeometry x="20" y="260" width="560" height="170" as="geometry" />
        </mxCell>
        <mxCell id="8TzWARxH1gXRL0cS0EjO-1" value="Telegram Application" style="rounded=0;whiteSpace=wrap;html=1;align=right;verticalAlign=top;" vertex="1" parent="WIyWlLk6GJQsqaUBKTNV-1">
          <mxGeometry x="20" y="130" width="560" height="120" as="geometry" />
        </mxCell>
        <mxCell id="WIyWlLk6GJQsqaUBKTNV-3" value="Employee start chat with ChatBot and request information from HR Easy" style="rounded=1;whiteSpace=wrap;html=1;fontSize=12;glass=0;strokeWidth=1;shadow=0;" parent="WIyWlLk6GJQsqaUBKTNV-1" vertex="1">
          <mxGeometry x="40" y="160" width="160" height="70" as="geometry" />
        </mxCell>
        <mxCell id="8TzWARxH1gXRL0cS0EjO-15" style="edgeStyle=orthogonalEdgeStyle;rounded=0;orthogonalLoop=1;jettySize=auto;html=1;entryX=0.5;entryY=0;entryDx=0;entryDy=0;shadow=0;strokeColor=default;strokeWidth=1;align=center;verticalAlign=middle;fontFamily=Helvetica;fontSize=11;fontColor=default;labelBackgroundColor=none;endArrow=block;endFill=0;endSize=8;" edge="1" parent="WIyWlLk6GJQsqaUBKTNV-1" source="WIyWlLk6GJQsqaUBKTNV-6" target="8TzWARxH1gXRL0cS0EjO-12">
          <mxGeometry relative="1" as="geometry" />
        </mxCell>
        <mxCell id="8TzWARxH1gXRL0cS0EjO-19" value="Yes" style="edgeLabel;html=1;align=center;verticalAlign=middle;resizable=0;points=[];labelBackgroundColor=#97D077;" vertex="1" connectable="0" parent="8TzWARxH1gXRL0cS0EjO-15">
          <mxGeometry x="-0.5303" y="1" relative="1" as="geometry">
            <mxPoint as="offset" />
          </mxGeometry>
        </mxCell>
        <mxCell id="WIyWlLk6GJQsqaUBKTNV-6" value="Exact one&lt;br&gt;&amp;nbsp;not dissmed&lt;br&gt;employee found in database for given account" style="rhombus;whiteSpace=wrap;html=1;shadow=0;fontFamily=Helvetica;fontSize=12;align=center;strokeWidth=1;spacing=6;spacingTop=-4;" parent="WIyWlLk6GJQsqaUBKTNV-1" vertex="1">
          <mxGeometry x="219" y="575" width="150" height="130" as="geometry" />
        </mxCell>
        <mxCell id="8TzWARxH1gXRL0cS0EjO-3" value="" style="rounded=0;html=1;jettySize=auto;orthogonalLoop=1;fontSize=11;endArrow=block;endFill=0;endSize=8;strokeWidth=1;shadow=0;labelBackgroundColor=none;edgeStyle=orthogonalEdgeStyle;" edge="1" parent="WIyWlLk6GJQsqaUBKTNV-1" source="WIyWlLk6GJQsqaUBKTNV-3" target="8TzWARxH1gXRL0cS0EjO-0">
          <mxGeometry relative="1" as="geometry">
            <mxPoint x="120" y="230" as="sourcePoint" />
            <mxPoint x="120" y="460" as="targetPoint" />
          </mxGeometry>
        </mxCell>
        <mxCell id="8TzWARxH1gXRL0cS0EjO-0" value="Get user account" style="rounded=1;whiteSpace=wrap;html=1;fontSize=12;glass=0;strokeWidth=1;shadow=0;" vertex="1" parent="WIyWlLk6GJQsqaUBKTNV-1">
          <mxGeometry x="60" y="290" width="120" height="40" as="geometry" />
        </mxCell>
        <mxCell id="8TzWARxH1gXRL0cS0EjO-4" value="Generate and sign JWT token with account" style="rounded=1;whiteSpace=wrap;html=1;fontSize=12;glass=0;strokeWidth=1;shadow=0;" vertex="1" parent="WIyWlLk6GJQsqaUBKTNV-1">
          <mxGeometry x="60" y="360" width="120" height="40" as="geometry" />
        </mxCell>
        <mxCell id="8TzWARxH1gXRL0cS0EjO-5" value="" style="rounded=0;html=1;jettySize=auto;orthogonalLoop=1;fontSize=11;endArrow=block;endFill=0;endSize=8;strokeWidth=1;shadow=0;labelBackgroundColor=none;edgeStyle=orthogonalEdgeStyle;entryX=0.5;entryY=0;entryDx=0;entryDy=0;" edge="1" parent="WIyWlLk6GJQsqaUBKTNV-1" source="8TzWARxH1gXRL0cS0EjO-0" target="8TzWARxH1gXRL0cS0EjO-4">
          <mxGeometry relative="1" as="geometry" />
        </mxCell>
        <mxCell id="8TzWARxH1gXRL0cS0EjO-7" value="" style="rounded=0;html=1;jettySize=auto;orthogonalLoop=1;fontSize=11;endArrow=block;endFill=0;endSize=8;strokeWidth=1;shadow=0;labelBackgroundColor=none;edgeStyle=orthogonalEdgeStyle;exitX=0.5;exitY=1;exitDx=0;exitDy=0;" edge="1" parent="WIyWlLk6GJQsqaUBKTNV-1" source="8TzWARxH1gXRL0cS0EjO-4" target="WIyWlLk6GJQsqaUBKTNV-7">
          <mxGeometry relative="1" as="geometry">
            <mxPoint x="120" y="400" as="sourcePoint" />
            <mxPoint x="120" y="800" as="targetPoint" />
          </mxGeometry>
        </mxCell>
        <mxCell id="8TzWARxH1gXRL0cS0EjO-8" style="edgeStyle=orthogonalEdgeStyle;rounded=0;orthogonalLoop=1;jettySize=auto;html=1;entryX=0.5;entryY=0;entryDx=0;entryDy=0;shadow=0;strokeColor=default;strokeWidth=1;align=center;verticalAlign=middle;fontFamily=Helvetica;fontSize=11;fontColor=default;labelBackgroundColor=none;endArrow=block;endFill=0;endSize=8;" edge="1" parent="WIyWlLk6GJQsqaUBKTNV-1" source="WIyWlLk6GJQsqaUBKTNV-7" target="WIyWlLk6GJQsqaUBKTNV-6">
          <mxGeometry relative="1" as="geometry" />
        </mxCell>
        <mxCell id="WIyWlLk6GJQsqaUBKTNV-7" value="Get token from HTTP header.&lt;br&gt;Validate signature.&lt;br&gt;Extract telegram account name" style="rounded=1;whiteSpace=wrap;html=1;fontSize=12;glass=0;strokeWidth=1;shadow=0;" parent="WIyWlLk6GJQsqaUBKTNV-1" vertex="1">
          <mxGeometry x="60" y="480" width="120" height="100" as="geometry" />
        </mxCell>
        <mxCell id="8TzWARxH1gXRL0cS0EjO-10" value="No user found&lt;br&gt;or&lt;br&gt;Multiplte user found&lt;br&gt;error" style="verticalLabelPosition=bottom;verticalAlign=top;html=1;shape=mxgraph.flowchart.or;fillColor=#f8cecc;strokeColor=#b85450;fontColor=#FF0000;" vertex="1" parent="WIyWlLk6GJQsqaUBKTNV-1">
          <mxGeometry x="85" y="605" width="70" height="70" as="geometry" />
        </mxCell>
        <mxCell id="8TzWARxH1gXRL0cS0EjO-26" style="edgeStyle=orthogonalEdgeStyle;rounded=0;orthogonalLoop=1;jettySize=auto;html=1;shadow=0;strokeColor=default;strokeWidth=1;align=center;verticalAlign=middle;fontFamily=Helvetica;fontSize=11;fontColor=default;labelBackgroundColor=none;endArrow=block;endFill=0;endSize=8;" edge="1" parent="WIyWlLk6GJQsqaUBKTNV-1" source="8TzWARxH1gXRL0cS0EjO-12" target="8TzWARxH1gXRL0cS0EjO-25">
          <mxGeometry relative="1" as="geometry" />
        </mxCell>
        <mxCell id="8TzWARxH1gXRL0cS0EjO-12" value="Employee &lt;br&gt;has confirmed his telegram account" style="rhombus;whiteSpace=wrap;html=1;shadow=0;fontFamily=Helvetica;fontSize=12;align=center;strokeWidth=1;spacing=6;spacingTop=-4;" vertex="1" parent="WIyWlLk6GJQsqaUBKTNV-1">
          <mxGeometry x="390" y="690" width="150" height="130" as="geometry" />
        </mxCell>
        <mxCell id="8TzWARxH1gXRL0cS0EjO-18" style="edgeStyle=orthogonalEdgeStyle;rounded=0;orthogonalLoop=1;jettySize=auto;html=1;shadow=0;strokeColor=default;strokeWidth=1;align=center;verticalAlign=middle;fontFamily=Helvetica;fontSize=11;fontColor=default;labelBackgroundColor=none;endArrow=block;endFill=0;endSize=8;entryX=0;entryY=0.5;entryDx=0;entryDy=0;" edge="1" parent="WIyWlLk6GJQsqaUBKTNV-1" source="8TzWARxH1gXRL0cS0EjO-12" target="8TzWARxH1gXRL0cS0EjO-34">
          <mxGeometry relative="1" as="geometry">
            <mxPoint x="690" y="520" as="targetPoint" />
          </mxGeometry>
        </mxCell>
        <mxCell id="8TzWARxH1gXRL0cS0EjO-24" value="No" style="edgeLabel;html=1;align=center;verticalAlign=middle;resizable=0;points=[];" vertex="1" connectable="0" parent="8TzWARxH1gXRL0cS0EjO-18">
          <mxGeometry x="-0.2667" relative="1" as="geometry">
            <mxPoint as="offset" />
          </mxGeometry>
        </mxCell>
        <mxCell id="8TzWARxH1gXRL0cS0EjO-22" style="edgeStyle=orthogonalEdgeStyle;rounded=0;orthogonalLoop=1;jettySize=auto;html=1;entryX=1;entryY=0.5;entryDx=0;entryDy=0;entryPerimeter=0;" edge="1" parent="WIyWlLk6GJQsqaUBKTNV-1" source="WIyWlLk6GJQsqaUBKTNV-6" target="8TzWARxH1gXRL0cS0EjO-10">
          <mxGeometry relative="1" as="geometry" />
        </mxCell>
        <mxCell id="8TzWARxH1gXRL0cS0EjO-23" value="No" style="edgeLabel;html=1;align=center;verticalAlign=middle;resizable=0;points=[];" vertex="1" connectable="0" parent="8TzWARxH1gXRL0cS0EjO-22">
          <mxGeometry x="-0.0089" y="-1" relative="1" as="geometry">
            <mxPoint as="offset" />
          </mxGeometry>
        </mxCell>
        <mxCell id="8TzWARxH1gXRL0cS0EjO-28" style="edgeStyle=orthogonalEdgeStyle;rounded=0;orthogonalLoop=1;jettySize=auto;html=1;entryX=1;entryY=0.5;entryDx=0;entryDy=0;shadow=0;strokeColor=default;strokeWidth=1;align=center;verticalAlign=middle;fontFamily=Helvetica;fontSize=11;fontColor=default;labelBackgroundColor=none;endArrow=block;endFill=0;endSize=8;" edge="1" parent="WIyWlLk6GJQsqaUBKTNV-1" source="8TzWARxH1gXRL0cS0EjO-25" target="8TzWARxH1gXRL0cS0EjO-27">
          <mxGeometry relative="1" as="geometry" />
        </mxCell>
        <mxCell id="8TzWARxH1gXRL0cS0EjO-25" value="Authorize user in HR Easy as an employee" style="rounded=1;whiteSpace=wrap;html=1;" vertex="1" parent="WIyWlLk6GJQsqaUBKTNV-1">
          <mxGeometry x="405" y="860" width="120" height="60" as="geometry" />
        </mxCell>
        <mxCell id="8TzWARxH1gXRL0cS0EjO-30" style="edgeStyle=orthogonalEdgeStyle;rounded=0;orthogonalLoop=1;jettySize=auto;html=1;shadow=0;strokeColor=default;strokeWidth=1;align=center;verticalAlign=middle;fontFamily=Helvetica;fontSize=11;fontColor=default;labelBackgroundColor=none;endArrow=block;endFill=0;endSize=8;" edge="1" parent="WIyWlLk6GJQsqaUBKTNV-1" source="8TzWARxH1gXRL0cS0EjO-27" target="8TzWARxH1gXRL0cS0EjO-29">
          <mxGeometry relative="1" as="geometry" />
        </mxCell>
        <mxCell id="8TzWARxH1gXRL0cS0EjO-27" value="Check user&#39;s permissions.&lt;br&gt;Execute request.&lt;br&gt;Return result" style="rounded=1;whiteSpace=wrap;html=1;" vertex="1" parent="WIyWlLk6GJQsqaUBKTNV-1">
          <mxGeometry x="234" y="860" width="120" height="60" as="geometry" />
        </mxCell>
        <mxCell id="8TzWARxH1gXRL0cS0EjO-29" value="Success" style="strokeWidth=2;html=1;shape=mxgraph.flowchart.terminator;whiteSpace=wrap;fillColor=#d5e8d4;strokeColor=#82b366;" vertex="1" parent="WIyWlLk6GJQsqaUBKTNV-1">
          <mxGeometry x="70" y="860" width="100" height="60" as="geometry" />
        </mxCell>
        <mxCell id="8TzWARxH1gXRL0cS0EjO-31" value="1) Authorization process in Telegram Bot" style="text;html=1;align=center;verticalAlign=middle;whiteSpace=wrap;rounded=0;fontStyle=0;fontSize=22;" vertex="1" parent="WIyWlLk6GJQsqaUBKTNV-1">
          <mxGeometry x="20" y="80" width="560" height="30" as="geometry" />
        </mxCell>
        <mxCell id="8TzWARxH1gXRL0cS0EjO-32" value="2) Start telegram account confimation process" style="text;html=1;align=center;verticalAlign=middle;whiteSpace=wrap;rounded=0;fontStyle=0;fontSize=22;" vertex="1" parent="WIyWlLk6GJQsqaUBKTNV-1">
          <mxGeometry x="630" y="80" width="560" height="30" as="geometry" />
        </mxCell>
        <mxCell id="8TzWARxH1gXRL0cS0EjO-39" style="edgeStyle=orthogonalEdgeStyle;rounded=0;orthogonalLoop=1;jettySize=auto;html=1;shadow=0;strokeColor=default;strokeWidth=1;align=center;verticalAlign=middle;fontFamily=Helvetica;fontSize=11;fontColor=default;labelBackgroundColor=none;endArrow=block;endFill=0;endSize=8;" edge="1" parent="WIyWlLk6GJQsqaUBKTNV-1" source="8TzWARxH1gXRL0cS0EjO-34" target="8TzWARxH1gXRL0cS0EjO-67">
          <mxGeometry relative="1" as="geometry">
            <mxPoint x="740" y="280" as="targetPoint" />
          </mxGeometry>
        </mxCell>
        <mxCell id="8TzWARxH1gXRL0cS0EjO-34" value="Ask yser to send&amp;nbsp;&lt;br&gt;/confirm_me command" style="rounded=1;whiteSpace=wrap;html=1;fontSize=12;glass=0;strokeWidth=1;shadow=0;" vertex="1" parent="WIyWlLk6GJQsqaUBKTNV-1">
          <mxGeometry x="660" y="155" width="160" height="70" as="geometry" />
        </mxCell>
        <mxCell id="8TzWARxH1gXRL0cS0EjO-55" style="edgeStyle=orthogonalEdgeStyle;rounded=0;orthogonalLoop=1;jettySize=auto;html=1;shadow=0;strokeColor=default;strokeWidth=1;align=center;verticalAlign=middle;fontFamily=Helvetica;fontSize=11;fontColor=default;labelBackgroundColor=none;endArrow=block;endFill=0;endSize=8;" edge="1" parent="WIyWlLk6GJQsqaUBKTNV-1" source="8TzWARxH1gXRL0cS0EjO-56">
          <mxGeometry relative="1" as="geometry">
            <mxPoint x="870" y="575" as="targetPoint" />
          </mxGeometry>
        </mxCell>
        <mxCell id="8TzWARxH1gXRL0cS0EjO-65" value="No" style="edgeLabel;html=1;align=center;verticalAlign=middle;resizable=0;points=[];labelBackgroundColor=#97D077;" vertex="1" connectable="0" parent="8TzWARxH1gXRL0cS0EjO-55">
          <mxGeometry x="-0.3143" relative="1" as="geometry">
            <mxPoint as="offset" />
          </mxGeometry>
        </mxCell>
        <mxCell id="8TzWARxH1gXRL0cS0EjO-56" value="Telegram account is confirmed by employee" style="rhombus;whiteSpace=wrap;html=1;shadow=0;fontFamily=Helvetica;fontSize=12;align=center;strokeWidth=1;spacing=6;spacingTop=-4;" vertex="1" parent="WIyWlLk6GJQsqaUBKTNV-1">
          <mxGeometry x="665" y="510" width="150" height="130" as="geometry" />
        </mxCell>
        <mxCell id="8TzWARxH1gXRL0cS0EjO-92" style="edgeStyle=orthogonalEdgeStyle;shape=connector;rounded=0;orthogonalLoop=1;jettySize=auto;html=1;entryX=0.5;entryY=0;entryDx=0;entryDy=0;shadow=0;strokeColor=default;strokeWidth=1;align=center;verticalAlign=middle;fontFamily=Helvetica;fontSize=11;fontColor=default;labelBackgroundColor=none;endArrow=block;endFill=0;endSize=8;" edge="1" parent="WIyWlLk6GJQsqaUBKTNV-1" source="8TzWARxH1gXRL0cS0EjO-62" target="8TzWARxH1gXRL0cS0EjO-91">
          <mxGeometry relative="1" as="geometry" />
        </mxCell>
        <mxCell id="8TzWARxH1gXRL0cS0EjO-62" value="Generate &lt;b&gt;UUID&lt;/b&gt;" style="rounded=1;whiteSpace=wrap;html=1;" vertex="1" parent="WIyWlLk6GJQsqaUBKTNV-1">
          <mxGeometry x="1066" y="710" width="120" height="60" as="geometry" />
        </mxCell>
        <mxCell id="8TzWARxH1gXRL0cS0EjO-68" style="edgeStyle=orthogonalEdgeStyle;rounded=0;orthogonalLoop=1;jettySize=auto;html=1;shadow=0;strokeColor=default;strokeWidth=1;align=center;verticalAlign=middle;fontFamily=Helvetica;fontSize=11;fontColor=default;labelBackgroundColor=none;endArrow=block;endFill=0;endSize=8;" edge="1" parent="WIyWlLk6GJQsqaUBKTNV-1" source="8TzWARxH1gXRL0cS0EjO-67" target="8TzWARxH1gXRL0cS0EjO-56">
          <mxGeometry relative="1" as="geometry" />
        </mxCell>
        <mxCell id="8TzWARxH1gXRL0cS0EjO-67" value="..." style="rounded=1;whiteSpace=wrap;html=1;fontSize=12;glass=0;strokeWidth=1;shadow=0;" vertex="1" parent="WIyWlLk6GJQsqaUBKTNV-1">
          <mxGeometry x="680" y="420" width="120" height="40" as="geometry" />
        </mxCell>
        <mxCell id="8TzWARxH1gXRL0cS0EjO-70" value="Already Confirmed" style="verticalLabelPosition=bottom;verticalAlign=top;html=1;shape=mxgraph.flowchart.or;fillColor=#f8cecc;strokeColor=#b85450;fontColor=#FF0000;" vertex="1" parent="WIyWlLk6GJQsqaUBKTNV-1">
          <mxGeometry x="650" y="660" width="70" height="70" as="geometry" />
        </mxCell>
        <mxCell id="8TzWARxH1gXRL0cS0EjO-71" style="edgeStyle=orthogonalEdgeStyle;rounded=0;orthogonalLoop=1;jettySize=auto;html=1;entryX=1;entryY=0.5;entryDx=0;entryDy=0;entryPerimeter=0;shadow=0;strokeColor=default;strokeWidth=1;align=center;verticalAlign=middle;fontFamily=Helvetica;fontSize=11;fontColor=default;labelBackgroundColor=none;endArrow=block;endFill=0;endSize=8;" edge="1" parent="WIyWlLk6GJQsqaUBKTNV-1" source="8TzWARxH1gXRL0cS0EjO-56" target="8TzWARxH1gXRL0cS0EjO-70">
          <mxGeometry relative="1" as="geometry" />
        </mxCell>
        <mxCell id="8TzWARxH1gXRL0cS0EjO-72" value="Yes" style="edgeLabel;html=1;align=center;verticalAlign=middle;resizable=0;points=[];rounded=0;shadow=0;strokeColor=default;strokeWidth=1;fontFamily=Helvetica;fontSize=11;fontColor=default;labelBackgroundColor=default;" vertex="1" connectable="0" parent="8TzWARxH1gXRL0cS0EjO-71">
          <mxGeometry x="-0.4578" y="2" relative="1" as="geometry">
            <mxPoint as="offset" />
          </mxGeometry>
        </mxCell>
        <mxCell id="8TzWARxH1gXRL0cS0EjO-78" style="edgeStyle=orthogonalEdgeStyle;rounded=0;orthogonalLoop=1;jettySize=auto;html=1;entryX=0.5;entryY=0;entryDx=0;entryDy=0;shadow=0;strokeColor=default;strokeWidth=1;align=center;verticalAlign=middle;fontFamily=Helvetica;fontSize=11;fontColor=default;labelBackgroundColor=none;endArrow=block;endFill=0;endSize=8;" edge="1" parent="WIyWlLk6GJQsqaUBKTNV-1" source="8TzWARxH1gXRL0cS0EjO-74" target="8TzWARxH1gXRL0cS0EjO-77">
          <mxGeometry relative="1" as="geometry" />
        </mxCell>
        <mxCell id="8TzWARxH1gXRL0cS0EjO-82" value="yes" style="edgeLabel;html=1;align=center;verticalAlign=middle;resizable=0;points=[];fontFamily=Helvetica;fontSize=11;fontColor=default;labelBackgroundColor=default;" vertex="1" connectable="0" parent="8TzWARxH1gXRL0cS0EjO-78">
          <mxGeometry x="-0.2256" y="2" relative="1" as="geometry">
            <mxPoint x="-2" y="-7" as="offset" />
          </mxGeometry>
        </mxCell>
        <mxCell id="8TzWARxH1gXRL0cS0EjO-83" style="edgeStyle=orthogonalEdgeStyle;shape=connector;rounded=0;orthogonalLoop=1;jettySize=auto;html=1;shadow=0;strokeColor=default;strokeWidth=1;align=center;verticalAlign=middle;fontFamily=Helvetica;fontSize=11;fontColor=default;labelBackgroundColor=none;endArrow=block;endFill=0;endSize=8;" edge="1" parent="WIyWlLk6GJQsqaUBKTNV-1" source="8TzWARxH1gXRL0cS0EjO-74" target="8TzWARxH1gXRL0cS0EjO-62">
          <mxGeometry relative="1" as="geometry" />
        </mxCell>
        <mxCell id="8TzWARxH1gXRL0cS0EjO-84" value="No" style="edgeLabel;html=1;align=center;verticalAlign=middle;resizable=0;points=[];fontFamily=Helvetica;fontSize=11;fontColor=default;labelBackgroundColor=#97D077;" vertex="1" connectable="0" parent="8TzWARxH1gXRL0cS0EjO-83">
          <mxGeometry x="0.5947" y="2" relative="1" as="geometry">
            <mxPoint as="offset" />
          </mxGeometry>
        </mxCell>
        <mxCell id="8TzWARxH1gXRL0cS0EjO-74" value="Previous &lt;br&gt;request &lt;br&gt;for this account&lt;br&gt;in local cache &lt;br&gt;founded?" style="rhombus;whiteSpace=wrap;html=1;shadow=0;fontFamily=Helvetica;fontSize=12;align=center;strokeWidth=1;spacing=6;spacingTop=-4;" vertex="1" parent="WIyWlLk6GJQsqaUBKTNV-1">
          <mxGeometry x="870" y="510" width="150" height="130" as="geometry" />
        </mxCell>
        <mxCell id="8TzWARxH1gXRL0cS0EjO-85" style="edgeStyle=orthogonalEdgeStyle;shape=connector;rounded=0;orthogonalLoop=1;jettySize=auto;html=1;entryX=0;entryY=0.5;entryDx=0;entryDy=0;shadow=0;strokeColor=default;strokeWidth=1;align=center;verticalAlign=middle;fontFamily=Helvetica;fontSize=11;fontColor=default;labelBackgroundColor=none;endArrow=block;endFill=0;endSize=8;" edge="1" parent="WIyWlLk6GJQsqaUBKTNV-1" source="8TzWARxH1gXRL0cS0EjO-77" target="8TzWARxH1gXRL0cS0EjO-62">
          <mxGeometry relative="1" as="geometry" />
        </mxCell>
        <mxCell id="8TzWARxH1gXRL0cS0EjO-87" value="Yes" style="edgeLabel;html=1;align=center;verticalAlign=middle;resizable=0;points=[];fontFamily=Helvetica;fontSize=11;fontColor=default;labelBackgroundColor=#97D077;" vertex="1" connectable="0" parent="8TzWARxH1gXRL0cS0EjO-85">
          <mxGeometry x="-0.2694" y="-1" relative="1" as="geometry">
            <mxPoint as="offset" />
          </mxGeometry>
        </mxCell>
        <mxCell id="8TzWARxH1gXRL0cS0EjO-77" value="Request created more than 2 minutes ago?" style="rhombus;whiteSpace=wrap;html=1;shadow=0;fontFamily=Helvetica;fontSize=12;align=center;strokeWidth=1;spacing=6;spacingTop=-4;" vertex="1" parent="WIyWlLk6GJQsqaUBKTNV-1">
          <mxGeometry x="870" y="675" width="150" height="130" as="geometry" />
        </mxCell>
        <mxCell id="8TzWARxH1gXRL0cS0EjO-80" value="Previous request &lt;br&gt;is not expired" style="verticalLabelPosition=bottom;verticalAlign=top;html=1;shape=mxgraph.flowchart.or;fillColor=#f8cecc;strokeColor=#b85450;fontColor=#FF0000;" vertex="1" parent="WIyWlLk6GJQsqaUBKTNV-1">
          <mxGeometry x="757" y="705" width="70" height="70" as="geometry" />
        </mxCell>
        <mxCell id="8TzWARxH1gXRL0cS0EjO-81" style="edgeStyle=orthogonalEdgeStyle;shape=connector;rounded=0;orthogonalLoop=1;jettySize=auto;html=1;entryX=1;entryY=0.5;entryDx=0;entryDy=0;entryPerimeter=0;shadow=0;strokeColor=default;strokeWidth=1;align=center;verticalAlign=middle;fontFamily=Helvetica;fontSize=11;fontColor=default;labelBackgroundColor=none;endArrow=block;endFill=0;endSize=8;" edge="1" parent="WIyWlLk6GJQsqaUBKTNV-1" source="8TzWARxH1gXRL0cS0EjO-77" target="8TzWARxH1gXRL0cS0EjO-80">
          <mxGeometry relative="1" as="geometry" />
        </mxCell>
        <mxCell id="8TzWARxH1gXRL0cS0EjO-94" style="edgeStyle=orthogonalEdgeStyle;shape=connector;rounded=0;orthogonalLoop=1;jettySize=auto;html=1;shadow=0;strokeColor=default;strokeWidth=1;align=center;verticalAlign=middle;fontFamily=Helvetica;fontSize=11;fontColor=default;labelBackgroundColor=none;endArrow=block;endFill=0;endSize=8;" edge="1" parent="WIyWlLk6GJQsqaUBKTNV-1" source="8TzWARxH1gXRL0cS0EjO-91" target="8TzWARxH1gXRL0cS0EjO-93">
          <mxGeometry relative="1" as="geometry" />
        </mxCell>
        <mxCell id="8TzWARxH1gXRL0cS0EjO-91" value="Put request to local cache" style="rounded=1;whiteSpace=wrap;html=1;" vertex="1" parent="WIyWlLk6GJQsqaUBKTNV-1">
          <mxGeometry x="1066" y="810" width="120" height="60" as="geometry" />
        </mxCell>
        <mxCell id="8TzWARxH1gXRL0cS0EjO-96" style="edgeStyle=orthogonalEdgeStyle;shape=connector;rounded=0;orthogonalLoop=1;jettySize=auto;html=1;shadow=0;strokeColor=default;strokeWidth=1;align=center;verticalAlign=middle;fontFamily=Helvetica;fontSize=11;fontColor=default;labelBackgroundColor=none;endArrow=block;endFill=0;endSize=8;" edge="1" parent="WIyWlLk6GJQsqaUBKTNV-1" source="8TzWARxH1gXRL0cS0EjO-93" target="8TzWARxH1gXRL0cS0EjO-95">
          <mxGeometry relative="1" as="geometry" />
        </mxCell>
        <mxCell id="8TzWARxH1gXRL0cS0EjO-93" value="Get working email from employee profile" style="rounded=1;whiteSpace=wrap;html=1;" vertex="1" parent="WIyWlLk6GJQsqaUBKTNV-1">
          <mxGeometry x="900" y="810" width="120" height="60" as="geometry" />
        </mxCell>
        <mxCell id="8TzWARxH1gXRL0cS0EjO-100" style="edgeStyle=orthogonalEdgeStyle;shape=connector;rounded=0;orthogonalLoop=1;jettySize=auto;html=1;entryX=0;entryY=0.5;entryDx=0;entryDy=0;shadow=0;strokeColor=default;strokeWidth=1;align=center;verticalAlign=middle;fontFamily=Helvetica;fontSize=11;fontColor=default;labelBackgroundColor=none;endArrow=block;endFill=0;endSize=8;" edge="1" parent="WIyWlLk6GJQsqaUBKTNV-1" source="8TzWARxH1gXRL0cS0EjO-95" target="8TzWARxH1gXRL0cS0EjO-99">
          <mxGeometry relative="1" as="geometry">
            <Array as="points">
              <mxPoint x="1196" y="950" />
              <mxPoint x="1196" y="185" />
            </Array>
          </mxGeometry>
        </mxCell>
        <mxCell id="8TzWARxH1gXRL0cS0EjO-95" value="Send email with employeeId, telegran account and &lt;b&gt;UUID &lt;/b&gt;based link to hr easy web&amp;nbsp;" style="rounded=1;whiteSpace=wrap;html=1;" vertex="1" parent="WIyWlLk6GJQsqaUBKTNV-1">
          <mxGeometry x="900" y="910" width="120" height="70" as="geometry" />
        </mxCell>
        <mxCell id="8TzWARxH1gXRL0cS0EjO-104" style="edgeStyle=orthogonalEdgeStyle;shape=connector;rounded=0;orthogonalLoop=1;jettySize=auto;html=1;shadow=0;strokeColor=default;strokeWidth=1;align=center;verticalAlign=middle;fontFamily=Helvetica;fontSize=11;fontColor=default;labelBackgroundColor=none;endArrow=block;endFill=0;endSize=8;" edge="1" parent="WIyWlLk6GJQsqaUBKTNV-1" source="8TzWARxH1gXRL0cS0EjO-99" target="8TzWARxH1gXRL0cS0EjO-101">
          <mxGeometry relative="1" as="geometry" />
        </mxCell>
        <mxCell id="8TzWARxH1gXRL0cS0EjO-99" value="Open link with confirmation UUID" style="rounded=1;whiteSpace=wrap;html=1;" vertex="1" parent="WIyWlLk6GJQsqaUBKTNV-1">
          <mxGeometry x="1260" y="155" width="120" height="60" as="geometry" />
        </mxCell>
        <mxCell id="8TzWARxH1gXRL0cS0EjO-106" style="edgeStyle=orthogonalEdgeStyle;shape=connector;rounded=0;orthogonalLoop=1;jettySize=auto;html=1;shadow=0;strokeColor=default;strokeWidth=1;align=center;verticalAlign=middle;fontFamily=Helvetica;fontSize=11;fontColor=default;labelBackgroundColor=none;endArrow=block;endFill=0;endSize=8;" edge="1" parent="WIyWlLk6GJQsqaUBKTNV-1" source="8TzWARxH1gXRL0cS0EjO-101" target="8TzWARxH1gXRL0cS0EjO-103">
          <mxGeometry relative="1" as="geometry" />
        </mxCell>
        <mxCell id="8TzWARxH1gXRL0cS0EjO-101" value="Extract&amp;nbsp; employeeId, telegram account and &lt;b&gt;UUID&lt;/b&gt; from request" style="rounded=1;whiteSpace=wrap;html=1;fontSize=12;glass=0;strokeWidth=1;shadow=0;" vertex="1" parent="WIyWlLk6GJQsqaUBKTNV-1">
          <mxGeometry x="1255" y="480" width="130" height="60" as="geometry" />
        </mxCell>
        <mxCell id="8TzWARxH1gXRL0cS0EjO-109" style="edgeStyle=orthogonalEdgeStyle;shape=connector;rounded=0;orthogonalLoop=1;jettySize=auto;html=1;entryX=0;entryY=0.5;entryDx=0;entryDy=0;shadow=0;strokeColor=default;strokeWidth=1;align=center;verticalAlign=middle;fontFamily=Helvetica;fontSize=11;fontColor=default;labelBackgroundColor=none;endArrow=block;endFill=0;endSize=8;" edge="1" parent="WIyWlLk6GJQsqaUBKTNV-1" source="8TzWARxH1gXRL0cS0EjO-103" target="8TzWARxH1gXRL0cS0EjO-108">
          <mxGeometry relative="1" as="geometry" />
        </mxCell>
        <mxCell id="8TzWARxH1gXRL0cS0EjO-103" value="Find confirm request by employeeId and telegram account" style="rounded=1;whiteSpace=wrap;html=1;fontSize=12;glass=0;strokeWidth=1;shadow=0;" vertex="1" parent="WIyWlLk6GJQsqaUBKTNV-1">
          <mxGeometry x="1255" y="580" width="130" height="60" as="geometry" />
        </mxCell>
        <mxCell id="8TzWARxH1gXRL0cS0EjO-107" value="3) Complete confirmation process" style="text;html=1;align=center;verticalAlign=middle;whiteSpace=wrap;rounded=0;fontStyle=0;fontSize=22;" vertex="1" parent="WIyWlLk6GJQsqaUBKTNV-1">
          <mxGeometry x="1175" y="80" width="560" height="30" as="geometry" />
        </mxCell>
        <mxCell id="8TzWARxH1gXRL0cS0EjO-114" style="edgeStyle=orthogonalEdgeStyle;shape=connector;rounded=0;orthogonalLoop=1;jettySize=auto;html=1;shadow=0;strokeColor=default;strokeWidth=1;align=center;verticalAlign=middle;fontFamily=Helvetica;fontSize=11;fontColor=default;labelBackgroundColor=none;endArrow=block;endFill=0;endSize=8;" edge="1" parent="WIyWlLk6GJQsqaUBKTNV-1" source="8TzWARxH1gXRL0cS0EjO-108" target="8TzWARxH1gXRL0cS0EjO-110">
          <mxGeometry relative="1" as="geometry" />
        </mxCell>
        <mxCell id="8TzWARxH1gXRL0cS0EjO-115" value="No" style="edgeLabel;html=1;align=center;verticalAlign=middle;resizable=0;points=[];fontFamily=Helvetica;fontSize=11;fontColor=default;labelBackgroundColor=default;" vertex="1" connectable="0" parent="8TzWARxH1gXRL0cS0EjO-114">
          <mxGeometry x="0.1416" y="2" relative="1" as="geometry">
            <mxPoint x="-12" y="2" as="offset" />
          </mxGeometry>
        </mxCell>
        <mxCell id="8TzWARxH1gXRL0cS0EjO-117" style="edgeStyle=orthogonalEdgeStyle;shape=connector;rounded=0;orthogonalLoop=1;jettySize=auto;html=1;entryX=0.5;entryY=0;entryDx=0;entryDy=0;shadow=0;strokeColor=default;strokeWidth=1;align=center;verticalAlign=middle;fontFamily=Helvetica;fontSize=11;fontColor=default;labelBackgroundColor=none;endArrow=block;endFill=0;endSize=8;" edge="1" parent="WIyWlLk6GJQsqaUBKTNV-1" source="8TzWARxH1gXRL0cS0EjO-108" target="8TzWARxH1gXRL0cS0EjO-116">
          <mxGeometry relative="1" as="geometry" />
        </mxCell>
        <mxCell id="8TzWARxH1gXRL0cS0EjO-118" value="Yes" style="edgeLabel;html=1;align=center;verticalAlign=middle;resizable=0;points=[];fontFamily=Helvetica;fontSize=11;fontColor=default;labelBackgroundColor=#97D077;" vertex="1" connectable="0" parent="8TzWARxH1gXRL0cS0EjO-117">
          <mxGeometry x="-0.5922" relative="1" as="geometry">
            <mxPoint as="offset" />
          </mxGeometry>
        </mxCell>
        <mxCell id="8TzWARxH1gXRL0cS0EjO-108" value="Request found&lt;br&gt;in cache" style="rhombus;whiteSpace=wrap;html=1;shadow=0;fontFamily=Helvetica;fontSize=12;align=center;strokeWidth=1;spacing=6;spacingTop=-4;" vertex="1" parent="WIyWlLk6GJQsqaUBKTNV-1">
          <mxGeometry x="1450" y="566.25" width="90" height="87.5" as="geometry" />
        </mxCell>
        <mxCell id="8TzWARxH1gXRL0cS0EjO-110" value="Invalid link" style="verticalLabelPosition=bottom;verticalAlign=top;html=1;shape=mxgraph.flowchart.or;fillColor=#f8cecc;strokeColor=#b85450;fontColor=#FF0000;" vertex="1" parent="WIyWlLk6GJQsqaUBKTNV-1">
          <mxGeometry x="1584" y="575" width="70" height="70" as="geometry" />
        </mxCell>
        <mxCell id="8TzWARxH1gXRL0cS0EjO-120" style="edgeStyle=orthogonalEdgeStyle;shape=connector;rounded=0;orthogonalLoop=1;jettySize=auto;html=1;shadow=0;strokeColor=default;strokeWidth=1;align=center;verticalAlign=middle;fontFamily=Helvetica;fontSize=11;fontColor=default;labelBackgroundColor=none;endArrow=block;endFill=0;endSize=8;" edge="1" parent="WIyWlLk6GJQsqaUBKTNV-1" source="8TzWARxH1gXRL0cS0EjO-116" target="8TzWARxH1gXRL0cS0EjO-119">
          <mxGeometry relative="1" as="geometry" />
        </mxCell>
        <mxCell id="8TzWARxH1gXRL0cS0EjO-121" value="Yes" style="edgeLabel;html=1;align=center;verticalAlign=middle;resizable=0;points=[];fontFamily=Helvetica;fontSize=11;fontColor=default;labelBackgroundColor=default;" vertex="1" connectable="0" parent="8TzWARxH1gXRL0cS0EjO-120">
          <mxGeometry x="-0.1897" y="1" relative="1" as="geometry">
            <mxPoint x="-2" y="1" as="offset" />
          </mxGeometry>
        </mxCell>
        <mxCell id="8TzWARxH1gXRL0cS0EjO-124" style="edgeStyle=orthogonalEdgeStyle;shape=connector;rounded=0;orthogonalLoop=1;jettySize=auto;html=1;shadow=0;strokeColor=default;strokeWidth=1;align=center;verticalAlign=middle;fontFamily=Helvetica;fontSize=11;fontColor=default;labelBackgroundColor=none;endArrow=block;endFill=0;endSize=8;exitX=0;exitY=0.5;exitDx=0;exitDy=0;" edge="1" parent="WIyWlLk6GJQsqaUBKTNV-1" source="8TzWARxH1gXRL0cS0EjO-116" target="8TzWARxH1gXRL0cS0EjO-123">
          <mxGeometry relative="1" as="geometry">
            <mxPoint x="1465" y="800" as="targetPoint" />
          </mxGeometry>
        </mxCell>
        <mxCell id="8TzWARxH1gXRL0cS0EjO-125" value="No" style="edgeLabel;html=1;align=center;verticalAlign=middle;resizable=0;points=[];fontFamily=Helvetica;fontSize=11;fontColor=default;labelBackgroundColor=#97D077;" vertex="1" connectable="0" parent="8TzWARxH1gXRL0cS0EjO-124">
          <mxGeometry x="-0.2054" y="-1" relative="1" as="geometry">
            <mxPoint as="offset" />
          </mxGeometry>
        </mxCell>
        <mxCell id="8TzWARxH1gXRL0cS0EjO-116" value="Request is experide&lt;br&gt;(10 min)" style="rhombus;whiteSpace=wrap;html=1;shadow=0;fontFamily=Helvetica;fontSize=12;align=center;strokeWidth=1;spacing=6;spacingTop=-4;" vertex="1" parent="WIyWlLk6GJQsqaUBKTNV-1">
          <mxGeometry x="1445" y="685" width="100" height="90" as="geometry" />
        </mxCell>
        <mxCell id="8TzWARxH1gXRL0cS0EjO-119" value="Expired link" style="verticalLabelPosition=bottom;verticalAlign=top;html=1;shape=mxgraph.flowchart.or;fillColor=#f8cecc;strokeColor=#b85450;fontColor=#FF0000;" vertex="1" parent="WIyWlLk6GJQsqaUBKTNV-1">
          <mxGeometry x="1584" y="695" width="70" height="70" as="geometry" />
        </mxCell>
        <mxCell id="8TzWARxH1gXRL0cS0EjO-123" value="UUID&lt;br&gt;from link and from request are equal" style="rhombus;whiteSpace=wrap;html=1;shadow=0;fontFamily=Helvetica;fontSize=12;align=center;strokeWidth=1;spacing=6;spacingTop=-4;" vertex="1" parent="WIyWlLk6GJQsqaUBKTNV-1">
          <mxGeometry x="1340" y="770" width="105" height="100" as="geometry" />
        </mxCell>
        <mxCell id="8TzWARxH1gXRL0cS0EjO-127" value="Invalid link" style="verticalLabelPosition=bottom;verticalAlign=top;html=1;shape=mxgraph.flowchart.or;fillColor=#f8cecc;strokeColor=#b85450;fontColor=#FF0000;" vertex="1" parent="WIyWlLk6GJQsqaUBKTNV-1">
          <mxGeometry x="1235" y="786" width="70" height="70" as="geometry" />
        </mxCell>
        <mxCell id="8TzWARxH1gXRL0cS0EjO-135" style="edgeStyle=orthogonalEdgeStyle;shape=connector;rounded=0;orthogonalLoop=1;jettySize=auto;html=1;entryX=1;entryY=0.5;entryDx=0;entryDy=0;entryPerimeter=0;shadow=0;strokeColor=default;strokeWidth=1;align=center;verticalAlign=middle;fontFamily=Helvetica;fontSize=11;fontColor=default;labelBackgroundColor=none;endArrow=block;endFill=0;endSize=8;" edge="1" parent="WIyWlLk6GJQsqaUBKTNV-1" source="8TzWARxH1gXRL0cS0EjO-123" target="8TzWARxH1gXRL0cS0EjO-127">
          <mxGeometry relative="1" as="geometry" />
        </mxCell>
        <mxCell id="8TzWARxH1gXRL0cS0EjO-136" value="No" style="edgeLabel;html=1;align=center;verticalAlign=middle;resizable=0;points=[];fontFamily=Helvetica;fontSize=11;fontColor=default;labelBackgroundColor=default;" vertex="1" connectable="0" parent="8TzWARxH1gXRL0cS0EjO-135">
          <mxGeometry x="0.1115" relative="1" as="geometry">
            <mxPoint x="10" as="offset" />
          </mxGeometry>
        </mxCell>
        <mxCell id="8TzWARxH1gXRL0cS0EjO-137" value="Mark empoyee telegram account as confirmed in DB" style="strokeWidth=2;html=1;shape=mxgraph.flowchart.terminator;whiteSpace=wrap;fillColor=#d5e8d4;strokeColor=#82b366;" vertex="1" parent="WIyWlLk6GJQsqaUBKTNV-1">
          <mxGeometry x="1464" y="880" width="120" height="70" as="geometry" />
        </mxCell>
        <mxCell id="8TzWARxH1gXRL0cS0EjO-139" style="edgeStyle=orthogonalEdgeStyle;shape=connector;rounded=0;orthogonalLoop=1;jettySize=auto;html=1;shadow=0;strokeColor=default;strokeWidth=1;align=center;verticalAlign=middle;fontFamily=Helvetica;fontSize=11;fontColor=default;labelBackgroundColor=none;endArrow=block;endFill=0;endSize=8;exitX=0.5;exitY=1;exitDx=0;exitDy=0;entryX=0;entryY=0.5;entryDx=0;entryDy=0;entryPerimeter=0;" edge="1" parent="WIyWlLk6GJQsqaUBKTNV-1" source="8TzWARxH1gXRL0cS0EjO-123" target="8TzWARxH1gXRL0cS0EjO-137">
          <mxGeometry relative="1" as="geometry">
            <mxPoint x="1455" y="740" as="sourcePoint" />
            <mxPoint x="1402" y="780" as="targetPoint" />
          </mxGeometry>
        </mxCell>
        <mxCell id="8TzWARxH1gXRL0cS0EjO-140" value="No" style="edgeLabel;html=1;align=center;verticalAlign=middle;resizable=0;points=[];fontFamily=Helvetica;fontSize=11;fontColor=default;labelBackgroundColor=#97D077;" vertex="1" connectable="0" parent="8TzWARxH1gXRL0cS0EjO-139">
          <mxGeometry x="-0.2054" y="-1" relative="1" as="geometry">
            <mxPoint x="16" y="-1" as="offset" />
          </mxGeometry>
        </mxCell>
      </root>
    </mxGraphModel>
  </diagram>
</mxfile>
